<?xml version="1.0" encoding="UTF-8" standalone="no"?>
<!-- Generator: Adobe Illustrator 27.5.0, SVG Export Plug-In . SVG Version: 6.00 Build 0)  -->

<svg
   version="1.1"
   x="0px"
   y="0px"
   viewBox="0 0 500 500"
   style="enable-background:new 0 0 500 500;"
   xml:space="preserve"
   id="svg214"
   sodipodi:docname="sky.svg"
   inkscape:version="1.2.2 (b0a8486541, 2022-12-01)"
   xmlns:inkscape="http://www.inkscape.org/namespaces/inkscape"
   xmlns:sodipodi="http://sodipodi.sourceforge.net/DTD/sodipodi-0.dtd"
   xmlns:xlink="http://www.w3.org/1999/xlink"
   xmlns="http://www.w3.org/2000/svg"
   xmlns:svg="http://www.w3.org/2000/svg"><defs
   id="defs218">
	

		<defs
   id="defs4">
			<rect
   id="SVGID_00000167359385034964085400000005608421056820615334_"
   width="500"
   height="500"
   x="0"
   y="0" />
		</defs>
		
		
	
			<linearGradient
   id="SVGID_1_"
   gradientUnits="userSpaceOnUse"
   x1="250.0005"
   y1="11"
   x2="250.0005"
   y2="493.19901">
				<stop
   offset="0.1212"
   style="stop-color:#FC5D59"
   id="stop9" />
				<stop
   offset="0.8629"
   style="stop-color:#FC9B4F"
   id="stop11" />
			</linearGradient>
			
			
			
			
		<clipPath
   clipPathUnits="userSpaceOnUse"
   id="clipPath2328"><g
     id="g2332"><use
       xlink:href="#SVGID_00000167359385034964085400000005608421056820615334_"
       style="overflow:visible"
       id="use2330" /></g></clipPath><clipPath
   clipPathUnits="userSpaceOnUse"
   id="clipPath2334"><g
     id="g2338"><use
       xlink:href="#SVGID_00000167359385034964085400000005608421056820615334_"
       style="overflow:visible"
       id="use2336" /></g></clipPath><clipPath
   clipPathUnits="userSpaceOnUse"
   id="clipPath2340"><g
     id="g2344"><use
       xlink:href="#SVGID_00000167359385034964085400000005608421056820615334_"
       style="overflow:visible"
       id="use2342" /></g></clipPath><clipPath
   clipPathUnits="userSpaceOnUse"
   id="clipPath2346"><g
     id="g2350"><use
       xlink:href="#SVGID_00000167359385034964085400000005608421056820615334_"
       style="overflow:visible"
       id="use2348" /></g></clipPath></defs><sodipodi:namedview
   id="namedview216"
   pagecolor="#ffffff"
   bordercolor="#666666"
   borderopacity="1.0"
   inkscape:showpageshadow="2"
   inkscape:pageopacity="0.0"
   inkscape:pagecheckerboard="0"
   inkscape:deskcolor="#d1d1d1"
   showgrid="false"
   inkscape:zoom="0.88165638"
   inkscape:cx="302.83907"
   inkscape:cy="222.30883"
   inkscape:window-width="1728"
   inkscape:window-height="1003"
   inkscape:window-x="0"
   inkscape:window-y="0"
   inkscape:window-maximized="1"
   inkscape:current-layer="svg214" />
<g
   id="BACKGROUND_2">
</g>
<rect
   x="-124.999"
   style="fill:url(#SVGID_1_)"
   width="750"
   height="500"
   id="rect14"
   y="0"
   clip-path="url(#clipPath2346)" /><g
   id="g61"
   clip-path="url(#clipPath2340)">
				<defs
   id="defs17">
					<rect
   id="SVGID_00000065778654687890926510000016732820464896962440_"
   x="-124.999"
   width="750"
   height="500"
   y="0" />
				</defs>
				<clipPath
   id="SVGID_00000176026432638490358050000014225312652095584659_">
					<use
   xlink:href="#SVGID_00000065778654687890926510000016732820464896962440_"
   style="overflow:visible"
   id="use19" />
				</clipPath>
				<g
   clip-path="url(#SVGID_00000176026432638490358050000014225312652095584659_)"
   id="g31">
					<circle
   style="fill:#ffffff"
   cx="295.82599"
   cy="467.92001"
   r="98.442001"
   id="circle22" />
					
						<linearGradient
   id="SVGID_00000062187172478467488960000013030249539904992424_"
   gradientUnits="userSpaceOnUse"
   x1="295.82611"
   y1="493.99991"
   x2="295.82611"
   y2="381.95981">
						<stop
   offset="0.1212"
   style="stop-color:#FC954F"
   id="stop24" />
						<stop
   offset="0.8629"
   style="stop-color:#FCF69D"
   id="stop26" />
					</linearGradient>
					
						<circle
   style="opacity:0.8;fill:url(#SVGID_00000062187172478467488960000013030249539904992424_)"
   cx="295.82599"
   cy="467.92001"
   r="98.442001"
   id="circle29" />
				</g>
				<g
   clip-path="url(#SVGID_00000176026432638490358050000014225312652095584659_)"
   id="g59">
					<path
   style="fill:#ffffff"
   d="m 476.272,247.382 c -7.587,0 -14.651,0.389 -20.592,1.057 -0.991,-1.874 -3.589,-3.215 -6.647,-3.215 -2.202,0 -4.169,0.694 -5.468,1.782 -2.289,-3.25 -7.188,-5.503 -12.879,-5.503 -6.246,0 -11.54,2.71 -13.472,6.478 -2.275,-1.685 -5.674,-2.757 -9.476,-2.757 -2.547,0 -4.913,0.482 -6.882,1.305 -0.616,-6.977 -8.672,-12.503 -18.547,-12.503 -4.198,0 -8.057,1.01 -11.17,2.693 10e-4,-0.059 0.006,-0.118 0.006,-0.177 0,-11.646 -12.731,-21.088 -28.435,-21.088 -10.754,0 -20.112,4.428 -24.944,10.96 -1.004,-0.653 -2.202,-1.036 -3.491,-1.036 -3.344,0 -6.084,2.555 -6.365,5.809 -1.02,-0.138 -2.06,-0.227 -3.129,-0.227 -10.013,0 -18.155,6.334 -18.567,14.266 -0.013,0 -0.026,0 -0.039,0 -14.729,0 -26.67,4.443 -26.67,9.924 0,5.481 11.94,9.923 26.67,9.923 8.697,0 16.419,-1.549 21.287,-3.946 8.772,4.374 26.629,7.371 47.248,7.371 17.41,0 32.86,-2.135 42.528,-5.433 3.738,2.185 12.585,3.721 22.906,3.721 8.641,0 16.246,-1.077 20.688,-2.709 2.748,0.629 5.954,0.997 9.393,0.997 7.842,0 14.512,-1.884 17.115,-4.527 2.867,0.12 5.856,0.186 8.934,0.186 21.066,0 38.144,-2.988 38.144,-6.674 -0.002,-3.689 -17.079,-6.677 -38.146,-6.677 z"
   id="path33" />
					<path
   style="fill:#ffffff"
   d="m 626.247,482.759 c -10.455,0 -20.188,0.563 -28.374,1.53 -1.365,-2.712 -4.945,-4.652 -9.159,-4.652 -3.034,0 -5.745,1.004 -7.535,2.578 -3.154,-4.703 -9.904,-7.962 -17.746,-7.962 -8.606,0 -15.901,3.921 -18.564,9.373 -3.135,-2.437 -7.818,-3.989 -13.057,-3.989 -3.509,0 -6.769,0.697 -9.483,1.888 -0.848,-10.094 -11.949,-18.09 -25.556,-18.09 -5.784,0 -11.102,1.461 -15.392,3.896 0.001,-0.086 0.008,-0.17 0.008,-0.256 0,-16.85 -17.542,-30.51 -39.181,-30.51 -14.818,0 -27.712,6.407 -34.37,15.856 -1.384,-0.945 -3.034,-1.499 -4.811,-1.499 -4.608,0 -8.383,3.696 -8.771,8.404 -1.405,-0.2 -2.839,-0.328 -4.312,-0.328 -13.797,0 -25.017,9.164 -25.584,20.64 -0.018,0 -0.036,-10e-4 -0.054,-10e-4 -20.296,0 -36.748,6.428 -36.748,14.358 0,7.929 16.453,14.357 36.748,14.357 11.983,0 22.624,-2.242 29.332,-5.71 12.088,6.328 36.693,10.664 65.103,10.664 23.99,0 45.278,-3.09 58.6,-7.861 5.151,3.161 17.341,5.383 31.563,5.383 11.906,0 22.386,-1.558 28.507,-3.92 3.787,0.91 8.204,1.443 12.943,1.443 10.806,0 19.997,-2.726 23.583,-6.55 3.951,0.174 8.069,0.269 12.311,0.269 29.027,0 52.559,-4.323 52.559,-9.656 -10e-4,-5.332 -23.533,-9.655 -52.56,-9.655 z"
   id="path35" />
					<path
   style="fill:#ffffff"
   d="m 139.211,336.302 c -7.615,0 -14.745,0.379 -20.879,1.037 0.039,-0.343 0.065,-0.688 0.065,-1.037 0,-8.42 -11.461,-15.246 -25.599,-15.246 -7.421,0 -14.102,1.883 -18.777,4.888 -5.912,-5.88 -16.444,-9.797 -28.458,-9.797 -18.501,0 -33.5,9.283 -33.5,20.734 0,0.135 0.012,0.268 0.016,0.402 -5.63,0.989 -9.683,3.715 -9.683,6.931 0,0.527 0.114,1.04 0.32,1.535 -12.926,0.764 -22.32,3.071 -22.32,5.798 0,3.351 14.178,6.067 31.667,6.067 8.024,0 15.346,-0.573 20.927,-1.516 3.883,0.974 8.125,1.516 12.573,1.516 7.304,0 14.056,-1.451 19.561,-3.907 7.329,2.38 18.61,3.907 31.272,3.907 16.302,0 30.315,-2.529 36.547,-6.154 2.044,0.057 4.136,0.087 6.267,0.087 22.909,0 41.48,-3.413 41.48,-7.623 0.001,-4.209 -18.571,-7.622 -41.479,-7.622 z"
   id="path37" />
					<path
   style="fill:#ffffff"
   d="m 203.695,481.711 c -10.622,0 -20.567,0.576 -29.123,1.576 0.054,-0.521 0.091,-1.045 0.091,-1.576 0,-12.792 -15.986,-23.162 -35.706,-23.162 -10.352,0 -19.669,2.86 -26.191,7.426 -8.247,-8.934 -22.936,-14.884 -39.693,-14.884 -25.806,0 -46.727,14.103 -46.727,31.5 0,0.205 0.017,0.407 0.023,0.611 -7.853,1.503 -13.506,5.644 -13.506,10.53 0,0.8 0.158,1.58 0.446,2.332 -18.03,1.161 -31.133,4.665 -31.133,8.809 0,5.091 19.776,9.218 44.17,9.218 11.192,0 21.405,-0.87 29.189,-2.302 5.417,1.48 11.333,2.302 17.538,2.302 10.188,0 19.606,-2.204 27.284,-5.935 10.223,3.616 25.958,5.935 43.62,5.935 22.738,0 42.285,-3.842 50.977,-9.349 2.851,0.087 5.77,0.132 8.741,0.132 31.954,0 57.858,-5.185 57.858,-11.581 0,-6.397 -25.904,-11.582 -57.858,-11.582 z"
   id="path39" />
					<path
   style="fill:#ffffff"
   d="m 303.58,310.523 c -2.804,0 -5.43,0.152 -7.689,0.416 0.014,-0.138 0.024,-0.276 0.024,-0.416 0,-3.377 -4.221,-6.115 -9.427,-6.115 -2.733,0 -5.193,0.755 -6.915,1.961 -2.177,-2.359 -6.056,-3.93 -10.48,-3.93 -6.813,0 -12.337,3.723 -12.337,8.317 0,0.054 0.004,0.107 0.006,0.161 -2.073,0.397 -3.566,1.49 -3.566,2.78 0,0.211 0.042,0.417 0.118,0.616 -4.76,0.306 -8.22,1.232 -8.22,2.326 0,1.344 5.221,2.434 11.662,2.434 2.955,0 5.651,-0.23 7.707,-0.608 1.43,0.391 2.992,0.608 4.63,0.608 2.69,0 5.176,-0.582 7.204,-1.567 2.699,0.955 6.853,1.567 11.517,1.567 6.003,0 11.164,-1.014 13.459,-2.469 0.753,0.023 1.523,0.035 2.308,0.035 8.437,0 15.276,-1.369 15.276,-3.058 0,-1.689 -6.841,-3.058 -15.277,-3.058 z"
   id="path41" />
					<path
   style="fill:#ffffff"
   d="m 490.05,363.815 c -4.31,0 -8.345,0.138 -11.816,0.379 0.022,-0.125 0.037,-0.251 0.037,-0.379 0,-3.075 -6.486,-5.568 -14.487,-5.568 -4.2,0 -7.981,0.688 -10.627,1.785 -3.346,-2.147 -9.306,-3.578 -16.106,-3.578 -10.471,0 -18.959,3.39 -18.959,7.572 0,0.049 0.007,0.098 0.009,0.147 -3.186,0.361 -5.48,1.357 -5.48,2.531 0,0.192 0.064,0.38 0.181,0.561 -7.315,0.279 -12.632,1.121 -12.632,2.118 0,1.224 8.024,2.216 17.922,2.216 4.541,0 8.685,-0.209 11.843,-0.553 2.198,0.356 4.598,0.553 7.116,0.553 4.134,0 7.955,-0.53 11.07,-1.427 4.148,0.869 10.532,1.427 17.699,1.427 9.226,0 17.157,-0.923 20.684,-2.247 1.157,0.021 2.341,0.032 3.547,0.032 12.965,0 23.476,-1.246 23.476,-2.784 -0.001,-1.538 -10.512,-2.785 -23.477,-2.785 z"
   id="path43" />
					<path
   style="fill:#ffffff"
   d="m 164.402,369.271 c -2.133,0 -4.131,0.089 -5.849,0.243 0.011,-0.08 0.018,-0.161 0.018,-0.243 0,-1.973 -3.211,-3.572 -7.171,-3.572 -2.079,0 -3.951,0.441 -5.26,1.145 -1.656,-1.378 -4.607,-2.295 -7.972,-2.295 -5.183,0 -9.385,2.175 -9.385,4.857 0,0.032 0.003,0.063 0.005,0.094 -1.577,0.232 -2.713,0.87 -2.713,1.624 0,0.123 0.032,0.243 0.09,0.36 -3.621,0.179 -6.253,0.719 -6.253,1.358 0,0.785 3.972,1.421 8.871,1.421 2.248,0 4.299,-0.134 5.863,-0.355 1.088,0.228 2.276,0.355 3.522,0.355 2.046,0 3.938,-0.34 5.48,-0.915 2.053,0.558 5.213,0.915 8.761,0.915 4.567,0 8.493,-0.592 10.238,-1.442 0.573,0.013 1.159,0.02 1.756,0.02 6.418,0 11.62,-0.8 11.62,-1.786 0,-0.986 -5.204,-1.784 -11.621,-1.784 z"
   id="path45" />
					<path
   style="fill:#ffffff"
   d="m 73.555,442.551 c -5.406,0 -10.467,0.313 -14.821,0.857 0.027,-0.283 0.046,-0.569 0.046,-0.857 0,-6.957 -8.136,-12.597 -18.172,-12.597 -5.268,0 -10.01,1.556 -13.329,4.039 -4.197,-4.859 -11.673,-8.095 -20.201,-8.095 -13.134,0 -23.78,7.67 -23.78,17.132 0,0.112 0.009,0.221 0.012,0.333 -3.997,0.817 -6.874,3.07 -6.874,5.727 0,0.435 0.081,0.859 0.227,1.268 -9.176,0.631 -15.844,2.537 -15.844,4.791 0,2.769 10.064,5.013 22.479,5.013 5.696,0 10.894,-0.473 14.855,-1.252 2.757,0.805 5.768,1.252 8.925,1.252 5.185,0 9.978,-1.199 13.885,-3.228 5.203,1.967 13.21,3.228 22.199,3.228 11.572,0 21.52,-2.089 25.943,-5.085 1.451,0.047 2.936,0.072 4.449,0.072 16.262,0 29.445,-2.82 29.445,-6.299 0.001,-3.479 -13.182,-6.299 -29.444,-6.299 z"
   id="path47" />
					<path
   style="fill:#ffffff"
   d="m 269.803,103.748 c -1.68,0 -3.253,0.078 -4.606,0.214 0.009,-0.071 0.014,-0.142 0.014,-0.214 0,-1.74 -2.528,-3.151 -5.647,-3.151 -1.637,0 -3.111,0.389 -4.142,1.01 -1.304,-1.215 -3.628,-2.025 -6.278,-2.025 -4.082,0 -7.39,1.919 -7.39,4.286 0,0.028 0.003,0.055 0.004,0.083 -1.242,0.204 -2.136,0.768 -2.136,1.433 0,0.109 0.025,0.215 0.071,0.317 -2.852,0.158 -4.924,0.635 -4.924,1.199 0,0.693 3.128,1.254 6.986,1.254 1.77,0 3.386,-0.118 4.617,-0.313 0.857,0.201 1.792,0.313 2.774,0.313 1.611,0 3.101,-0.3 4.315,-0.808 1.617,0.492 4.105,0.808 6.899,0.808 3.596,0 6.688,-0.523 8.062,-1.272 0.451,0.012 0.913,0.018 1.383,0.018 5.054,0 9.151,-0.705 9.151,-1.576 -0.002,-0.87 -4.099,-1.576 -9.153,-1.576 z"
   id="path49" />
					<path
   style="fill:#ffffff"
   d="m 511.282,229.043 c -2.033,0 -3.911,0.132 -5.435,0.355 0.034,-0.154 0.057,-0.311 0.057,-0.471 0,-2.103 -3.038,-3.807 -6.786,-3.807 -0.533,0 -1.049,0.038 -1.546,0.103 -0.482,-4.44 -6.362,-7.949 -13.55,-7.949 -7.132,0 -12.977,3.455 -13.538,7.846 -0.016,0 -0.032,-0.001 -0.048,-0.001 -4.986,0 -9.027,1.705 -9.027,3.807 0,0.039 0.004,0.077 0.007,0.115 -0.002,0 -0.005,0 -0.007,0 -3.854,0 -6.978,1.188 -6.978,2.654 0,1.466 3.124,2.654 6.978,2.654 1.992,0 3.784,-0.319 5.055,-0.828 0.502,1.635 4.137,2.905 8.55,2.905 3.657,0 6.78,-0.872 8.028,-2.101 0.324,0.015 0.65,0.025 0.98,0.025 1.67,0 3.269,-0.19 4.747,-0.537 1.821,0.995 5.952,1.691 10.759,1.691 6.406,0 11.612,-1.234 11.748,-2.769 0.002,0 0.004,0 0.006,0 5.092,0 9.219,-0.826 9.219,-1.846 0,-1.019 -4.128,-1.846 -9.219,-1.846 z"
   id="path51" />
					<path
   style="fill:#ffffff"
   d="m 10.377,482.994 c -7.715,0 -14.842,0.501 -20.627,1.348 0.129,-0.587 0.217,-1.18 0.217,-1.786 0,-7.981 -11.531,-14.45 -25.756,-14.45 -2.022,0 -3.981,0.144 -5.868,0.391 -1.83,-16.852 -24.146,-30.167 -51.425,-30.167 -27.069,0 -49.249,13.111 -51.378,29.778 -0.061,0 -0.121,-0.002 -0.183,-0.002 -18.921,0 -34.26,6.47 -34.26,14.45 0,0.147 0.016,0.292 0.026,0.438 -0.009,0 -0.017,-0.001 -0.026,-0.001 -14.627,0 -26.485,4.509 -26.485,10.071 0,5.562 11.858,10.071 26.485,10.071 7.558,0 14.36,-1.21 19.185,-3.141 1.905,6.207 15.701,11.023 32.448,11.023 13.88,0 25.73,-3.309 30.468,-7.975 1.23,0.055 2.468,0.093 3.72,0.093 6.339,0 12.408,-0.723 18.017,-2.038 6.912,3.778 22.588,6.417 40.833,6.417 24.313,0 44.069,-4.684 44.585,-10.509 0.008,0 0.016,0 0.024,0 19.324,0 34.989,-3.137 34.989,-7.006 0,-3.869 -15.665,-7.005 -34.989,-7.005 z"
   id="path53" />
					<path
   style="fill:#ffffff"
   d="m 246.349,419.432 c -2.736,0 -5.263,0.116 -7.314,0.311 0.046,-0.135 0.077,-0.272 0.077,-0.412 0,-1.841 -4.089,-3.334 -9.132,-3.334 -0.717,0 -1.411,0.033 -2.081,0.09 -0.649,-3.887 -8.561,-6.959 -18.234,-6.959 -9.598,0 -17.462,3.025 -18.217,6.87 -0.022,0 -0.043,-10e-4 -0.065,-10e-4 -6.709,0 -12.147,1.493 -12.147,3.334 0,0.034 0.006,0.067 0.009,0.101 -0.003,0 -0.006,0 -0.009,0 -5.186,0 -9.391,1.04 -9.391,2.323 0,1.283 4.204,2.323 9.391,2.323 2.68,0 5.092,-0.279 6.802,-0.725 0.675,1.432 5.567,2.543 11.505,2.543 4.921,0 9.123,-0.763 10.803,-1.84 0.436,0.013 0.875,0.021 1.319,0.021 2.248,0 4.399,-0.167 6.388,-0.47 2.451,0.872 8.009,1.48 14.478,1.48 8.62,0 15.625,-1.081 15.808,-2.424 0.003,0 0.006,0 0.009,0 6.852,0 12.406,-0.724 12.406,-1.616 0,-0.892 -5.553,-1.615 -12.405,-1.615 z"
   id="path55" />
					<path
   style="fill:#ffffff"
   d="m 148.783,197.93 c -3.908,0 -7.518,0.165 -10.448,0.444 0.065,-0.193 0.11,-0.389 0.11,-0.589 0,-2.63 -5.841,-4.762 -13.046,-4.762 -1.024,0 -2.016,0.048 -2.973,0.129 -0.927,-5.553 -12.23,-9.942 -26.048,-9.942 -13.711,0 -24.946,4.321 -26.024,9.814 -0.031,0 -0.062,-0.001 -0.093,-0.001 -9.584,0 -17.353,2.132 -17.353,4.762 0,0.048 0.008,0.096 0.013,0.144 -0.004,0 -0.009,0 -0.013,0 -7.409,0 -13.415,1.486 -13.415,3.319 0,1.833 6.006,3.319 13.415,3.319 3.828,0 7.273,-0.399 9.718,-1.035 0.965,2.046 7.953,3.633 16.435,3.633 7.03,0 13.033,-1.091 15.432,-2.628 0.623,0.018 1.25,0.031 1.884,0.031 3.211,0 6.285,-0.238 9.126,-0.672 3.501,1.245 11.441,2.115 20.683,2.115 12.315,0 22.322,-1.544 22.583,-3.463 0.004,0 0.008,0 0.012,0 9.788,0 17.723,-1.034 17.723,-2.309 0.002,-1.276 -7.933,-2.309 -17.721,-2.309 z"
   id="path57" />
				</g>
			</g><g
   id="g124"
   clip-path="url(#clipPath2328)">
				<path
   style="fill:#c12f2f"
   d="m 345.816,122.908 c 0,0 0.15,-0.005 0.432,-0.013 0.272,-0.026 0.661,-0.105 1.12,-0.292 0.46,-0.187 0.972,-0.507 1.555,-0.907 0.587,-0.401 1.232,-0.902 2.071,-1.379 0.102,-0.062 0.216,-0.117 0.327,-0.173 l 0.084,-0.042 0.042,-0.021 0.021,-0.011 c 0.022,-0.008 -0.034,0.011 0.052,-0.02 l 0.01,-0.004 0.16,-0.067 c 0.107,-0.045 0.216,-0.09 0.325,-0.135 l 0.166,-0.068 0.206,-0.061 c 0.273,-0.077 0.571,-0.173 0.843,-0.206 0.278,-0.047 0.563,-0.1 0.853,-0.109 1.162,-0.082 2.389,0.096 3.561,0.483 0.286,0.108 0.585,0.202 0.869,0.327 0.28,0.129 0.574,0.246 0.847,0.396 0.279,0.141 0.557,0.287 0.825,0.449 0.274,0.155 0.535,0.33 0.796,0.506 0.523,0.352 1.027,0.733 1.511,1.141 l 0.688,0.613 c 0.087,0.079 0.148,0.123 0.16,0.129 0.006,0.004 -0.005,-0.006 -0.035,-0.017 -0.015,-0.006 -0.033,-0.012 -0.058,-0.018 l -0.038,-0.008 -0.021,-0.003 -0.064,-0.006 0.014,0.001 0.028,0.002 0.014,0.001 c 0.006,0 0.011,0.001 -0.001,-0.001 -0.029,-0.003 -0.059,-0.003 -0.088,-10e-4 -0.031,10e-4 -0.048,0.005 -0.065,0.008 -0.033,0.007 -0.048,0.015 -0.048,0.015 0.004,-0.001 0.061,-0.027 0.145,-0.085 l 0.145,-0.102 0.18,-0.13 0.354,-0.258 c 0.469,-0.348 0.967,-0.698 1.482,-1.04 0.516,-0.343 1.062,-0.669 1.653,-0.945 0.588,-0.276 1.221,-0.51 1.891,-0.629 0.165,-0.035 0.335,-0.055 0.504,-0.072 0.168,-0.022 0.338,-0.028 0.508,-0.03 l 0.127,-0.002 0.063,-10e-4 0.031,-0.001 c 0.087,0 0.031,0.001 0.054,0.001 l 0.013,10e-4 0.203,0.013 0.101,0.008 0.131,0.015 0.267,0.035 c 0.654,0.106 1.225,0.301 1.746,0.531 1.039,0.463 1.86,1.024 2.603,1.506 0.368,0.246 0.72,0.47 1.047,0.667 0.333,0.202 0.656,0.374 0.965,0.522 0.618,0.294 1.188,0.485 1.677,0.562 0.487,0.071 0.893,0.074 1.165,0.032 0.138,-0.012 0.242,-0.039 0.314,-0.049 0.072,-0.013 0.109,-0.019 0.109,-0.019 0,0 -0.032,0.019 -0.095,0.057 -0.064,0.034 -0.154,0.103 -0.286,0.158 -0.257,0.126 -0.663,0.286 -1.215,0.351 -0.549,0.068 -1.239,0.048 -1.993,-0.114 -0.379,-0.075 -0.771,-0.191 -1.176,-0.326 -0.412,-0.138 -0.819,-0.304 -1.237,-0.476 -0.831,-0.346 -1.695,-0.739 -2.572,-0.987 -0.435,-0.12 -0.879,-0.216 -1.292,-0.226 l -0.134,-0.001 -0.071,-10e-4 -0.102,0.004 -0.204,0.005 h -0.013 c 0.014,0 -0.05,0 0.028,10e-4 l -0.019,0.003 -0.039,0.005 -0.078,0.01 c -0.103,0.011 -0.207,0.023 -0.311,0.049 -0.104,0.021 -0.208,0.041 -0.313,0.076 -0.417,0.122 -0.846,0.304 -1.278,0.545 -0.431,0.243 -0.868,0.534 -1.316,0.852 -0.448,0.32 -0.893,0.675 -1.374,1.032 l -0.359,0.269 -0.178,0.133 -0.217,0.156 c -0.16,0.11 -0.358,0.238 -0.628,0.352 -0.137,0.057 -0.294,0.109 -0.473,0.143 -0.09,0.018 -0.181,0.029 -0.286,0.036 -0.066,0.003 -0.133,0.004 -0.2,0.001 l -0.07,-0.004 -0.014,-10e-4 c -0.12,-0.01 -0.055,-0.006 -0.092,-0.009 l -0.076,-0.011 c -0.051,-0.008 -0.099,-0.018 -0.147,-0.03 -0.097,-0.022 -0.186,-0.052 -0.271,-0.084 -0.168,-0.064 -0.312,-0.141 -0.432,-0.217 -0.239,-0.152 -0.406,-0.302 -0.537,-0.422 l -0.63,-0.578 c -0.212,-0.174 -0.416,-0.358 -0.627,-0.53 -0.215,-0.166 -0.422,-0.345 -0.643,-0.498 -0.217,-0.16 -0.435,-0.316 -0.658,-0.459 -0.218,-0.154 -0.442,-0.289 -0.666,-0.423 -0.447,-0.27 -0.905,-0.49 -1.357,-0.702 -0.913,-0.389 -1.831,-0.632 -2.71,-0.69 -0.221,-0.028 -0.436,-0.016 -0.651,-0.013 -0.225,-0.007 -0.399,0.035 -0.597,0.045 l -0.146,0.011 -0.173,0.039 c -0.115,0.026 -0.23,0.053 -0.343,0.079 l -0.169,0.039 -0.011,0.002 c 0.079,-0.028 0.017,-0.006 0.032,-0.012 l -0.018,0.006 -0.037,0.011 -0.073,0.023 c -0.098,0.032 -0.195,0.054 -0.293,0.091 -0.782,0.264 -1.531,0.619 -2.227,0.885 -0.697,0.272 -1.353,0.45 -1.903,0.511 -0.551,0.07 -0.987,-0.008 -1.269,-0.069 -0.137,-0.035 -0.237,-0.079 -0.307,-0.101 -0.058,-0.023 -0.094,-0.035 -0.094,-0.035 z"
   id="path114" />
				<path
   style="fill:#c12f2f"
   d="m 412.727,193.952 c 0,0 0.038,0.001 0.111,0.004 0.073,0.003 0.181,0.005 0.322,0.018 0.281,0.025 0.698,0.06 1.213,0.131 0.515,0.063 1.139,0.137 1.811,0.122 0.164,-0.008 0.346,-0.014 0.503,-0.038 0.092,-0.012 0.201,-0.019 0.283,-0.037 0.082,-0.017 0.165,-0.034 0.249,-0.051 0.358,-0.082 0.737,-0.191 1.129,-0.334 0.788,-0.277 1.638,-0.671 2.574,-1.081 0.94,-0.405 1.961,-0.854 3.171,-1.145 0.604,-0.146 1.263,-0.242 1.973,-0.224 0.705,0.016 1.473,0.156 2.17,0.497 0.347,0.167 0.684,0.365 0.981,0.599 0.15,0.111 0.31,0.243 0.414,0.339 0.143,0.131 0.257,0.244 0.364,0.348 0.215,0.212 0.404,0.398 0.569,0.536 0.165,0.142 0.298,0.214 0.364,0.237 0.035,0.015 0.049,0.014 0.064,0.02 0.004,-0.001 0.008,-0.002 0.011,-0.001 l 0.006,0.003 c 0.014,0 -0.126,0.008 -0.06,0.004 l 0.014,-0.001 0.028,-0.002 c 0.032,-0.003 0.085,-0.006 0.099,-0.009 -0.012,-0.002 -0.025,-0.001 -0.036,0.002 0.015,0 0.157,-0.049 0.33,-0.169 0.177,-0.115 0.401,-0.294 0.679,-0.487 0.138,-0.097 0.298,-0.202 0.471,-0.303 0.277,-0.139 0.23,-0.13 0.516,-0.248 0.108,-0.044 0.219,-0.088 0.327,-0.126 l 0.291,-0.081 c 0.194,-0.056 0.389,-0.08 0.583,-0.112 0.386,-0.038 0.767,-0.044 1.128,-0.003 0.727,0.069 1.384,0.273 1.983,0.537 0.299,0.132 0.584,0.281 0.855,0.442 0.135,0.082 0.269,0.162 0.397,0.252 l 0.203,0.142 0.16,0.122 c 0.473,0.361 0.89,0.728 1.269,1.088 0.759,0.72 1.402,1.39 2.04,1.919 0.08,0.066 0.159,0.13 0.237,0.194 l 0.119,0.091 0.059,0.045 0.029,0.023 0.015,0.011 0.007,0.006 c 0.006,0.004 -0.026,-0.014 -0.008,-0.004 0.088,0.06 0.175,0.12 0.261,0.179 0.074,0.048 0.148,0.095 0.22,0.142 0.309,0.191 0.63,0.34 0.936,0.463 0.617,0.241 1.201,0.341 1.688,0.337 0.484,-0.014 0.878,-0.102 1.129,-0.21 0.132,-0.043 0.222,-0.099 0.29,-0.126 0.066,-0.031 0.1,-0.047 0.1,-0.047 0,0 -0.026,0.027 -0.076,0.08 -0.053,0.048 -0.12,0.142 -0.236,0.226 -0.217,0.186 -0.581,0.439 -1.12,0.601 -0.534,0.159 -1.234,0.25 -2.019,0.14 -0.394,-0.051 -0.803,-0.148 -1.232,-0.292 -0.11,-0.041 -0.22,-0.083 -0.333,-0.126 -0.096,-0.041 -0.193,-0.083 -0.291,-0.125 -0.109,-0.054 -0.219,-0.108 -0.33,-0.163 -0.104,-0.055 -0.208,-0.111 -0.314,-0.167 -0.836,-0.465 -1.641,-1.072 -2.449,-1.648 -0.814,-0.583 -1.613,-1.112 -2.48,-1.398 -0.434,-0.137 -0.878,-0.242 -1.292,-0.248 -0.209,-0.01 -0.405,0.014 -0.592,0.043 -0.089,0.024 -0.184,0.033 -0.267,0.065 l -0.127,0.04 c -0.028,0.014 -0.052,0.026 -0.079,0.036 0.009,-0.023 -0.283,0.151 -0.269,0.139 -0.077,0.051 -0.161,0.109 -0.26,0.185 -0.198,0.151 -0.43,0.345 -0.743,0.559 -0.313,0.209 -0.701,0.448 -1.266,0.576 -0.084,0.017 -0.169,0.032 -0.254,0.043 l -0.122,0.012 -0.028,0.003 -0.014,0.001 -0.087,0.005 -0.105,-0.001 -0.211,-0.007 c -0.279,-0.025 -0.557,-0.087 -0.797,-0.183 -0.486,-0.192 -0.848,-0.461 -1.131,-0.705 -0.285,-0.247 -0.511,-0.482 -0.714,-0.686 l -0.27,-0.268 c -0.11,-0.109 -0.176,-0.164 -0.259,-0.231 -0.157,-0.138 -0.326,-0.242 -0.499,-0.338 -0.346,-0.186 -0.735,-0.288 -1.168,-0.333 -0.433,-0.041 -0.904,-0.012 -1.389,0.054 -0.971,0.143 -1.974,0.438 -2.949,0.714 -0.979,0.276 -1.94,0.545 -2.879,0.692 -0.47,0.07 -0.929,0.119 -1.377,0.119 -0.118,-0.003 -0.234,-0.006 -0.349,-0.009 -0.114,-0.004 -0.2,-0.019 -0.3,-0.027 -0.227,-0.018 -0.417,-0.055 -0.612,-0.096 -0.766,-0.164 -1.361,-0.429 -1.846,-0.632 -0.484,-0.203 -0.852,-0.386 -1.111,-0.492 -0.257,-0.112 -0.395,-0.172 -0.395,-0.172 z"
   id="path116" />
				<path
   style="fill:#c12f2f"
   d="m 454.767,147.337 c 0,0 0.026,0.009 0.075,0.026 0.05,0.018 0.124,0.042 0.219,0.081 0.189,0.077 0.469,0.19 0.81,0.348 0.342,0.153 0.758,0.336 1.225,0.468 0.115,0.03 0.242,0.064 0.355,0.081 0.066,0.011 0.143,0.029 0.204,0.035 0.06,0.006 0.121,0.012 0.183,0.018 0.264,0.019 0.549,0.025 0.851,0.009 0.603,-0.024 1.274,-0.116 2.007,-0.2 0.735,-0.08 1.536,-0.174 2.433,-0.118 0.448,0.027 0.924,0.101 1.41,0.264 0.483,0.161 0.984,0.421 1.393,0.804 0.204,0.189 0.395,0.397 0.55,0.622 0.08,0.109 0.163,0.234 0.214,0.322 0.071,0.121 0.126,0.223 0.177,0.318 0.103,0.192 0.194,0.361 0.279,0.491 0.084,0.133 0.16,0.211 0.201,0.241 0.021,0.018 0.031,0.02 0.04,0.027 0.003,0 0.006,0.001 0.008,0.002 l 0.003,0.003 c 0.01,0.003 -0.088,-0.021 -0.042,-0.01 l 0.01,0.002 0.02,0.004 c 0.023,0.005 0.06,0.014 0.07,0.015 -0.008,-0.004 -0.017,-0.006 -0.025,-0.006 0.01,0.003 0.119,-0.001 0.264,-0.047 0.147,-0.042 0.339,-0.118 0.572,-0.192 0.116,-0.038 0.248,-0.076 0.389,-0.109 0.221,-0.038 0.187,-0.041 0.409,-0.062 0.084,-0.007 0.17,-0.014 0.252,-0.017 l 0.218,0.006 c 0.146,0.003 0.286,0.027 0.426,0.046 0.275,0.056 0.539,0.132 0.78,0.237 0.488,0.202 0.898,0.483 1.256,0.792 0.178,0.155 0.344,0.318 0.496,0.487 0.076,0.085 0.152,0.169 0.221,0.258 l 0.11,0.141 0.085,0.118 c 0.25,0.349 0.46,0.692 0.645,1.021 0.372,0.659 0.673,1.257 1.002,1.759 0.041,0.062 0.082,0.124 0.123,0.184 l 0.063,0.088 0.031,0.044 0.016,0.022 0.008,0.011 0.004,0.006 c 0.003,0.004 -0.015,-0.015 -0.005,-0.004 0.048,0.06 0.096,0.12 0.143,0.179 0.041,0.049 0.082,0.097 0.122,0.145 0.173,0.197 0.363,0.369 0.548,0.519 0.375,0.298 0.757,0.49 1.094,0.591 0.337,0.094 0.628,0.116 0.824,0.095 0.1,-0.001 0.174,-0.021 0.227,-0.026 0.052,-0.007 0.079,-0.011 0.079,-0.011 0,0 -0.024,0.013 -0.07,0.039 -0.047,0.022 -0.113,0.073 -0.211,0.106 -0.189,0.083 -0.495,0.18 -0.901,0.177 -0.403,-0.003 -0.906,-0.09 -1.424,-0.332 -0.261,-0.119 -0.523,-0.273 -0.789,-0.463 -0.067,-0.052 -0.135,-0.104 -0.203,-0.158 -0.057,-0.049 -0.116,-0.098 -0.175,-0.148 -0.064,-0.06 -0.128,-0.121 -0.193,-0.183 -0.06,-0.06 -0.12,-0.121 -0.181,-0.182 -0.478,-0.499 -0.905,-1.089 -1.341,-1.658 -0.438,-0.575 -0.878,-1.111 -1.416,-1.492 -0.271,-0.187 -0.555,-0.354 -0.84,-0.446 -0.142,-0.051 -0.283,-0.076 -0.418,-0.096 -0.067,-0.003 -0.134,-0.016 -0.198,-0.011 l -0.097,0.001 c -0.022,0.004 -0.041,0.007 -0.062,0.008 0.011,-0.014 -0.227,0.044 -0.215,0.039 -0.064,0.019 -0.134,0.041 -0.219,0.073 -0.169,0.062 -0.371,0.147 -0.632,0.228 -0.261,0.078 -0.579,0.161 -0.996,0.129 -0.062,-0.006 -0.124,-0.014 -0.185,-0.024 l -0.087,-0.018 -0.02,-0.004 -0.01,-0.002 -0.061,-0.015 -0.072,-0.023 -0.144,-0.05 c -0.187,-0.077 -0.366,-0.178 -0.512,-0.296 -0.295,-0.236 -0.488,-0.499 -0.631,-0.727 -0.144,-0.231 -0.251,-0.441 -0.347,-0.626 l -0.129,-0.242 c -0.053,-0.098 -0.087,-0.151 -0.13,-0.214 -0.079,-0.129 -0.174,-0.237 -0.273,-0.339 -0.199,-0.202 -0.446,-0.355 -0.736,-0.478 -0.29,-0.12 -0.622,-0.2 -0.971,-0.258 -0.701,-0.107 -1.456,-0.117 -2.189,-0.133 -0.735,-0.017 -1.456,-0.035 -2.135,-0.134 -0.339,-0.051 -0.667,-0.115 -0.976,-0.21 -0.081,-0.027 -0.16,-0.054 -0.239,-0.08 -0.078,-0.027 -0.134,-0.055 -0.201,-0.082 -0.153,-0.061 -0.276,-0.127 -0.402,-0.196 -0.494,-0.276 -0.849,-0.586 -1.141,-0.828 -0.291,-0.243 -0.507,-0.447 -0.663,-0.576 -0.154,-0.133 -0.237,-0.204 -0.237,-0.204 z"
   id="path118" />
				<path
   style="fill:#c12f2f"
   d="m 427.911,108.202 c 0,0 0.089,-0.049 0.256,-0.14 0.16,-0.093 0.383,-0.242 0.644,-0.45 0.26,-0.21 0.552,-0.485 0.875,-0.821 0.326,-0.334 0.68,-0.732 1.12,-1.163 0.112,-0.112 0.216,-0.21 0.36,-0.334 0.058,-0.051 0.117,-0.102 0.176,-0.154 0.074,-0.057 0.148,-0.115 0.223,-0.174 0.292,-0.221 0.612,-0.419 0.973,-0.601 0.36,-0.182 0.764,-0.328 1.221,-0.422 0.455,-0.095 0.976,-0.11 1.517,0.006 0.135,0.03 0.271,0.062 0.404,0.114 0.135,0.045 0.268,0.098 0.394,0.168 l 0.096,0.05 0.048,0.025 0.024,0.013 0.012,0.006 c 0.026,0.017 -0.042,-0.03 0.062,0.04 l 0.119,0.076 0.06,0.038 0.03,0.019 0.046,0.035 0.184,0.144 c 0.232,0.191 0.382,0.343 0.548,0.515 0.077,0.081 0.147,0.164 0.219,0.245 l 0.198,0.232 c 0.249,0.3 0.477,0.549 0.644,0.7 0.044,0.042 0.077,0.057 0.112,0.09 0.028,0.008 0.059,0.041 0.077,0.041 0.009,0.003 0.018,0.007 0.026,0.013 0.008,0.004 0.013,-0.001 0.019,0.002 0.009,0.01 0.023,-0.001 0.034,0.005 l 0.004,0.002 10e-4,10e-4 c 0.021,0.001 -0.186,-0.003 -0.094,-0.002 h 0.018 l 0.073,-0.001 0.074,-10e-4 h 0.037 c 0.005,0 0.016,0 0.016,0 l -0.006,-0.002 c -0.025,-0.015 -0.084,0.014 -0.036,-0.004 0.043,-0.005 0.131,-0.049 0.232,-0.102 0.213,-0.127 0.502,-0.336 0.852,-0.585 0.355,-0.247 0.797,-0.538 1.391,-0.709 l 0.231,-0.052 0.116,-0.023 0.014,-0.003 0.099,-0.015 0.018,-0.001 0.035,-0.002 0.14,-0.009 0.076,-0.004 h 0.142 c 0.189,0.002 0.388,0.016 0.522,0.052 l 0.223,0.05 c 0.071,0.021 0.139,0.046 0.208,0.07 0.547,0.201 0.959,0.5 1.279,0.802 0.321,0.304 0.576,0.606 0.794,0.901 0.44,0.59 0.752,1.132 1.062,1.56 0.637,0.89 1.32,1.564 1.832,2.016 0.256,0.225 0.468,0.401 0.616,0.517 0.149,0.117 0.228,0.18 0.228,0.18 0,0 -0.101,-0.01 -0.29,-0.04 -0.186,-0.038 -0.467,-0.081 -0.811,-0.188 -0.345,-0.103 -0.761,-0.254 -1.218,-0.481 -0.457,-0.227 -0.956,-0.529 -1.46,-0.924 -0.517,-0.408 -0.976,-0.884 -1.443,-1.291 -0.234,-0.202 -0.465,-0.397 -0.693,-0.539 -0.228,-0.141 -0.437,-0.238 -0.593,-0.255 l -0.057,-0.009 c -0.017,0.002 -0.034,0.003 -0.051,0.003 -0.047,-0.006 -0.034,0.011 -0.032,0.007 0,0 0.001,-0.002 0.002,-0.004 l -0.064,0.01 -0.139,0.023 -0.035,0.006 -0.017,0.003 c -0.023,0.003 0.159,-0.023 0.081,-0.011 l -0.003,0.002 -0.022,0.011 c -0.014,0.007 -0.029,0.012 -0.043,0.016 -0.127,0.063 -0.334,0.199 -0.599,0.408 -0.269,0.209 -0.581,0.498 -1.037,0.776 -0.238,0.138 -0.498,0.281 -0.834,0.379 -0.137,0.05 -0.392,0.096 -0.61,0.117 l -0.042,0.004 -0.021,0.001 -0.037,10e-4 -0.073,0.002 -0.073,0.002 -0.018,0.001 -0.112,-0.002 -0.017,-0.002 -0.069,-0.008 c -0.183,-0.023 -0.367,-0.046 -0.542,-0.106 -0.087,-0.028 -0.178,-0.053 -0.26,-0.088 -0.081,-0.036 -0.161,-0.073 -0.24,-0.112 -0.163,-0.077 -0.286,-0.17 -0.426,-0.26 -0.115,-0.092 -0.243,-0.189 -0.34,-0.282 -0.408,-0.379 -0.659,-0.747 -0.891,-1.049 l -0.164,-0.218 -0.151,-0.195 c -0.087,-0.114 -0.197,-0.242 -0.25,-0.299 -0.174,-0.178 -0.295,-0.259 -0.464,-0.338 -0.335,-0.148 -0.875,-0.14 -1.406,10e-4 -0.267,0.063 -0.533,0.163 -0.786,0.265 -0.06,0.025 -0.119,0.049 -0.178,0.074 -0.07,0.035 -0.139,0.07 -0.208,0.104 -0.107,0.051 -0.247,0.129 -0.37,0.193 -0.504,0.27 -0.988,0.55 -1.444,0.765 -0.455,0.218 -0.877,0.377 -1.235,0.464 -0.356,0.093 -0.649,0.106 -0.841,0.119 -0.19,-0.003 -0.292,-0.01 -0.292,-0.01 z"
   id="path120" />
				<path
   style="fill:#c12f2f"
   d="m 316.573,60.318 c 0,0 0.05,-0.077 0.144,-0.22 0.088,-0.142 0.202,-0.356 0.321,-0.633 0.118,-0.278 0.233,-0.622 0.347,-1.027 0.117,-0.405 0.23,-0.873 0.396,-1.404 0.042,-0.138 0.083,-0.259 0.144,-0.419 0.025,-0.065 0.05,-0.131 0.075,-0.198 0.034,-0.077 0.069,-0.155 0.103,-0.233 0.139,-0.3 0.309,-0.594 0.518,-0.893 0.209,-0.298 0.469,-0.587 0.793,-0.857 0.322,-0.269 0.73,-0.504 1.211,-0.642 0.121,-0.034 0.242,-0.066 0.37,-0.082 0.127,-0.021 0.255,-0.036 0.385,-0.034 l 0.098,-0.001 h 0.049 0.025 0.012 c 0.028,0.003 -0.046,-0.006 0.067,0.006 l 0.127,0.01 0.064,0.005 0.032,0.002 0.052,0.008 0.208,0.036 c 0.267,0.053 0.45,0.111 0.656,0.176 0.096,0.032 0.187,0.068 0.279,0.102 l 0.256,0.101 c 0.326,0.133 0.614,0.234 0.811,0.283 0.053,0.015 0.085,0.013 0.128,0.024 0.026,-0.005 0.065,0.008 0.078,0 0.009,-0.002 0.017,-0.002 0.026,-10e-4 0.008,0 0.01,-0.007 0.016,-0.007 0.012,0.004 0.018,-0.011 0.029,-0.011 h 0.004 0.001 c 0.017,-0.008 -0.15,0.077 -0.075,0.039 l 0.015,-0.008 0.058,-0.032 0.058,-0.032 0.029,-0.016 c 0.004,-0.002 0.012,-0.007 0.012,-0.007 l -0.005,10e-4 c -0.026,-10e-4 -0.061,0.047 -0.031,0.012 0.033,-0.022 0.084,-0.095 0.141,-0.18 0.115,-0.192 0.257,-0.481 0.429,-0.829 0.177,-0.348 0.405,-0.768 0.806,-1.158 l 0.162,-0.14 0.082,-0.068 0.01,-0.008 0.072,-0.054 0.014,-0.008 0.027,-0.017 0.108,-0.067 0.058,-0.035 0.113,-0.06 c 0.151,-0.078 0.316,-0.152 0.438,-0.181 l 0.199,-0.055 c 0.065,-0.014 0.13,-0.023 0.195,-0.033 0.522,-0.073 0.977,-0.011 1.361,0.094 0.385,0.105 0.717,0.237 1.017,0.379 0.601,0.282 1.081,0.581 1.511,0.79 0.887,0.438 1.718,0.683 2.318,0.825 0.3,0.07 0.544,0.12 0.711,0.15 0.169,0.03 0.259,0.046 0.259,0.046 0,0 -0.085,0.035 -0.248,0.092 -0.164,0.049 -0.407,0.135 -0.726,0.196 -0.319,0.065 -0.714,0.122 -1.175,0.136 -0.461,0.014 -0.987,-0.014 -1.557,-0.114 -0.586,-0.105 -1.154,-0.288 -1.699,-0.413 -0.273,-0.061 -0.54,-0.118 -0.782,-0.134 -0.242,-0.015 -0.449,-0.004 -0.581,0.05 l -0.049,0.017 c -0.013,0.009 -0.026,0.017 -0.039,0.024 -0.04,0.015 -0.023,0.024 -0.023,0.019 0,0 0,-0.002 0,-0.004 l -0.047,0.035 -0.101,0.077 -0.025,0.019 -0.013,0.01 c -0.017,0.012 0.117,-0.086 0.06,-0.044 l -0.001,0.002 -0.013,0.018 c -0.009,0.011 -0.018,0.022 -0.028,0.031 -0.074,0.105 -0.181,0.301 -0.303,0.58 -0.125,0.282 -0.251,0.644 -0.495,1.06 -0.131,0.212 -0.277,0.437 -0.503,0.657 -0.088,0.099 -0.271,0.244 -0.436,0.353 l -0.032,0.021 -0.017,0.01 -0.029,0.017 -0.058,0.033 -0.057,0.033 -0.014,0.008 -0.09,0.046 -0.014,0.006 -0.058,0.023 c -0.156,0.06 -0.312,0.12 -0.477,0.147 -0.081,0.015 -0.165,0.033 -0.245,0.041 -0.08,0.006 -0.159,0.01 -0.239,0.013 -0.163,0.009 -0.3,-0.014 -0.45,-0.026 -0.13,-0.024 -0.274,-0.047 -0.391,-0.08 -0.487,-0.128 -0.843,-0.314 -1.156,-0.456 l -0.223,-0.104 -0.203,-0.091 c -0.118,-0.054 -0.26,-0.108 -0.326,-0.132 -0.215,-0.068 -0.346,-0.081 -0.514,-0.071 -0.329,0.025 -0.757,0.262 -1.119,0.6 -0.186,0.164 -0.355,0.357 -0.513,0.546 -0.037,0.045 -0.074,0.09 -0.111,0.135 -0.041,0.058 -0.081,0.115 -0.121,0.171 -0.064,0.086 -0.142,0.208 -0.212,0.311 -0.286,0.43 -0.552,0.859 -0.824,1.225 -0.27,0.367 -0.538,0.674 -0.786,0.896 -0.244,0.226 -0.472,0.361 -0.619,0.453 -0.15,0.082 -0.235,0.119 -0.235,0.119 z"
   id="path122" />
			</g>
			
		

</svg>
